<mxfile host="app.diagrams.net" modified="2024-06-24T22:10:15.418Z" agent="Mozilla/5.0 (iPad; CPU OS 17_5 like Mac OS X) AppleWebKit/605.1.15 (KHTML, like Gecko) CriOS/126.0.6478.108 Mobile/15E148 Safari/604.1" version="24.6.2" etag="hufLzqk-uP57kWExTGA0" type="github">
  <diagram name="Page-1" id="Iwh92Z2p3XsKrVnmPIV4">
    <mxGraphModel>
      <root>
        <mxCell id="0" />
        <mxCell id="1" parent="0" />
      </root>
    </mxGraphModel>
  </diagram>
</mxfile>
